# 3ds Max Wavefront OBJ Exporter v0.97b - (c)2007 guruware
# File Created: 08.01.2019 02:12:09

#
# object Box008
#

v  -17.50000 0.00000 7.50000
v  -17.50000 0.00000 -7.50000
v  17.50000 0.00000 -7.50000
v  17.50000 0.00000 7.50000
v  -17.50000 20.00000 7.50000
v  17.50000 20.00000 7.50000
v  17.50000 20.00000 -7.50000
v  -17.50000 20.00000 -7.50000
# 8 vertices

vn -0.57735 -0.57735 0.57735
vn -0.57735 -0.57735 -0.57735
vn 0.57735 -0.57735 -0.57735
vn 0.57735 -0.57735 0.57735
vn -0.57735 0.57735 0.57735
vn 0.57735 0.57735 0.57735
vn 0.57735 0.57735 -0.57735
vn -0.57735 0.57735 -0.57735
# 8 vertex normals

vt 16.92542 -14.19913 -4.59356
vt 16.92541 -6.69913 -4.59356
vt -0.57459 -6.69913 -4.59356
vt -0.57459 -14.19913 -4.59356
vt -15.92542 -14.19913 5.40644
vt 1.57459 -14.19913 5.40644
vt 1.57459 -6.69913 5.40644
vt -15.92541 -6.69913 5.40644
vt -15.92542 -4.59356 -14.19913
vt 1.57459 -4.59356 -14.19913
vt 1.57459 5.40644 -14.19913
vt -15.92542 5.40644 -14.19913
vt -14.19913 -4.59356 1.57459
vt -6.69913 -4.59356 1.57459
vt -6.69913 5.40644 1.57459
vt -14.19913 5.40644 1.57459
vt -0.57459 -4.59356 -6.69913
vt 16.92541 -4.59356 -6.69913
vt 16.92541 5.40644 -6.69913
vt -0.57459 5.40644 -6.69913
vt 7.69913 -4.59356 -15.92541
vt 15.19913 -4.59356 -15.92542
vt 15.19913 5.40644 -15.92542
vt 7.69913 5.40644 -15.92541
# 24 texture coords

o Box008
g Box008
s 2
f 1/1/1 2/2/2 3/3/3 4/4/4 
s 4
f 5/5/5 6/6/6 7/7/7 8/8/8 
s 8
f 1/9/1 4/10/4 6/11/6 5/12/5 
s 16
f 4/13/4 3/14/3 7/15/7 6/16/6 
s 32
f 3/17/3 2/18/2 8/19/8 7/20/7 
s 64
f 2/21/2 1/22/1 5/23/5 8/24/8 
# 6 polygons

