# 3ds Max Wavefront OBJ Exporter v0.97b - (c)2007 guruware
# File Created: 08.01.2019 02:12:13

#
# object Box013
#

v  -6.00000 0.00000 6.00000
v  -6.00000 0.00000 -6.00000
v  6.00000 0.00000 -6.00000
v  6.00000 0.00000 6.00000
v  -6.00000 28.00000 6.00000
v  6.00000 28.00000 6.00000
v  6.00000 28.00000 -6.00000
v  -6.00000 28.00000 -6.00000
# 8 vertices

vn -0.57735 -0.57735 0.57735
vn -0.57735 -0.57735 -0.57735
vn 0.57735 -0.57735 -0.57735
vn 0.57735 -0.57735 0.57735
vn -0.57735 0.57735 0.57735
vn 0.57735 0.57735 0.57735
vn 0.57735 0.57735 -0.57735
vn -0.57735 0.57735 -0.57735
# 8 vertex normals

vt 16.78095 -24.76246 -10.27670
vt 16.78095 -18.76246 -10.27670
vt 10.78095 -18.76246 -10.27670
vt 10.78096 -24.76246 -10.27670
vt -15.78095 -24.76246 3.72330
vt -9.78096 -24.76246 3.72330
vt -9.78095 -18.76246 3.72330
vt -15.78095 -18.76246 3.72330
vt -15.78095 -10.27670 -24.76246
vt -9.78096 -10.27670 -24.76246
vt -9.78096 3.72330 -24.76246
vt -15.78095 3.72330 -24.76246
vt -24.76246 -10.27670 -9.78096
vt -18.76246 -10.27670 -9.78095
vt -18.76246 3.72330 -9.78095
vt -24.76246 3.72330 -9.78096
vt 10.78095 -10.27670 -18.76246
vt 16.78095 -10.27670 -18.76246
vt 16.78095 3.72330 -18.76246
vt 10.78095 3.72330 -18.76246
vt 19.76246 -10.27670 -15.78095
vt 25.76246 -10.27670 -15.78095
vt 25.76246 3.72330 -15.78095
vt 19.76246 3.72330 -15.78095
# 24 texture coords

o Box013
g Box013
s 2
f 1/1/1 2/2/2 3/3/3 4/4/4 
s 4
f 5/5/5 6/6/6 7/7/7 8/8/8 
s 8
f 1/9/1 4/10/4 6/11/6 5/12/5 
s 16
f 4/13/4 3/14/3 7/15/7 6/16/6 
s 32
f 3/17/3 2/18/2 8/19/8 7/20/7 
s 64
f 2/21/2 1/22/1 5/23/5 8/24/8 
# 6 polygons

