# 3ds Max Wavefront OBJ Exporter v0.97b - (c)2007 guruware
# File Created: 08.01.2019 02:12:10

#
# object Box010
#

v  -5.00000 0.00000 2.50000
v  -5.00000 0.00000 -2.50000
v  5.00000 0.00000 -2.50000
v  5.00000 0.00000 2.50000
v  -5.00000 1.00000 2.50000
v  5.00000 1.00000 2.50000
v  5.00000 1.00000 -2.50000
v  -5.00000 1.00000 -2.50000
# 8 vertices

vn -0.57735 -0.57735 0.57735
vn -0.57735 -0.57735 -0.57735
vn 0.57735 -0.57735 -0.57735
vn 0.57735 -0.57735 0.57735
vn -0.57735 0.57735 0.57735
vn 0.57735 0.57735 0.57735
vn 0.57735 0.57735 -0.57735
vn -0.57735 0.57735 -0.57735
# 8 vertex normals

vt 13.11745 -18.71217 3.23852
vt 15.61745 -18.71217 3.23852
vt 15.61745 -14.01370 4.94862
vt 13.11745 -14.01370 4.94862
vt -12.11745 -18.88317 3.70836
vt -12.11745 -14.18471 5.41846
vt -14.61745 -14.18471 5.41846
vt -14.61745 -18.88318 3.70836
vt -18.71217 3.23852 -12.11745
vt -14.01370 4.94862 -12.11745
vt -14.18471 5.41846 -12.11745
vt -18.88317 3.70836 -12.11745
vt 13.11745 4.94862 -14.01370
vt 15.61745 4.94862 -14.01370
vt 15.61745 5.41846 -14.18471
vt 13.11745 5.41846 -14.18471
vt 15.01370 4.94862 -14.61745
vt 19.71217 3.23852 -14.61745
vt 19.88318 3.70836 -14.61745
vt 15.18471 5.41846 -14.61745
vt -14.61745 3.23852 -18.71217
vt -12.11745 3.23852 -18.71217
vt -12.11745 3.70836 -18.88317
vt -14.61745 3.70836 -18.88318
# 24 texture coords

o Box010
g Box010
s 2
f 1/1/1 2/2/2 3/3/3 4/4/4 
s 4
f 5/5/5 6/6/6 7/7/7 8/8/8 
s 8
f 1/9/1 4/10/4 6/11/6 5/12/5 
s 16
f 4/13/4 3/14/3 7/15/7 6/16/6 
s 32
f 3/17/3 2/18/2 8/19/8 7/20/7 
s 64
f 2/21/2 1/22/1 5/23/5 8/24/8 
# 6 polygons

