# 3ds Max Wavefront OBJ Exporter v0.97b - (c)2007 guruware
# File Created: 08.01.2019 02:12:12

#
# object Box012
#

v  -6.00000 0.00000 6.00000
v  -6.00000 0.00000 -6.00000
v  6.00000 0.00000 -6.00000
v  6.00000 0.00000 6.00000
v  -6.00000 28.00000 6.00000
v  6.00000 28.00000 6.00000
v  6.00000 28.00000 -6.00000
v  -6.00000 28.00000 -6.00000
# 8 vertices

vn -0.57735 -0.57735 0.57735
vn -0.57735 -0.57735 -0.57735
vn 0.57735 -0.57735 -0.57735
vn 0.57735 -0.57735 0.57735
vn -0.57735 0.57735 0.57735
vn 0.57735 0.57735 0.57735
vn 0.57735 0.57735 -0.57735
vn -0.57735 0.57735 -0.57735
# 8 vertex normals

vt 3.30798 19.76246 -2.90938
vt 3.30797 25.76246 -2.90938
vt -2.69203 25.76246 -2.90938
vt -2.69202 19.76246 -2.90938
vt -2.30798 19.76246 11.09062
vt 3.69202 19.76246 11.09062
vt 3.69203 25.76246 11.09062
vt -2.30797 25.76246 11.09062
vt -2.30798 -2.90938 19.76246
vt 3.69202 -2.90938 19.76246
vt 3.69202 11.09062 19.76246
vt -2.30798 11.09062 19.76246
vt 19.76246 -2.90938 3.69202
vt 25.76246 -2.90938 3.69203
vt 25.76246 11.09062 3.69203
vt 19.76246 11.09062 3.69202
vt -2.69203 -2.90938 25.76246
vt 3.30797 -2.90938 25.76246
vt 3.30797 11.09062 25.76246
vt -2.69203 11.09062 25.76246
vt -24.76246 -2.90938 -2.30797
vt -18.76246 -2.90938 -2.30798
vt -18.76246 11.09062 -2.30798
vt -24.76246 11.09062 -2.30797
# 24 texture coords

o Box012
g Box012
s 2
f 1/1/1 2/2/2 3/3/3 4/4/4 
s 4
f 5/5/5 6/6/6 7/7/7 8/8/8 
s 8
f 1/9/1 4/10/4 6/11/6 5/12/5 
s 16
f 4/13/4 3/14/3 7/15/7 6/16/6 
s 32
f 3/17/3 2/18/2 8/19/8 7/20/7 
s 64
f 2/21/2 1/22/1 5/23/5 8/24/8 
# 6 polygons

