# 3ds Max Wavefront OBJ Exporter v0.97b - (c)2007 guruware
# File Created: 08.01.2019 20:53:47

#
# object Box005
#

v  -5.00000 0.00000 2.50000
v  -5.00000 0.00000 -2.50000
v  5.00000 0.00000 -2.50000
v  5.00000 0.00000 2.50000
v  -5.00000 1.00000 2.50000
v  5.00000 1.00000 2.50000
v  5.00000 1.00000 -2.50000
v  -5.00000 1.00000 -2.50000
# 8 vertices

vn -0.57735 -0.57735 0.57735
vn -0.57735 -0.57735 -0.57735
vn 0.57735 -0.57735 -0.57735
vn 0.57735 -0.57735 0.57735
vn -0.57735 0.57735 0.57735
vn 0.57735 0.57735 0.57735
vn 0.57735 0.57735 -0.57735
vn -0.57735 0.57735 -0.57735
# 8 vertex normals

vt -0.62254 -6.51011 4.98688
vt 1.87746 -6.51011 4.98688
vt 1.87747 -1.81165 6.69698
vt -0.62253 -1.81165 6.69698
vt 1.62254 -6.68112 5.45673
vt 1.62253 -1.98266 7.16683
vt -0.87747 -1.98266 7.16683
vt -0.87746 -6.68112 5.45673
vt -6.51011 4.98688 1.62254
vt -1.81165 6.69698 1.62253
vt -1.98266 7.16683 1.62253
vt -6.68112 5.45673 1.62254
vt -0.62253 6.69698 -1.81165
vt 1.87747 6.69698 -1.81165
vt 1.87747 7.16683 -1.98266
vt -0.62253 7.16683 -1.98266
vt 2.81165 6.69698 -0.87747
vt 7.51011 4.98688 -0.87746
vt 7.68112 5.45673 -0.87746
vt 2.98266 7.16683 -0.87747
vt -0.87746 4.98688 -6.51011
vt 1.62254 4.98688 -6.51011
vt 1.62254 5.45673 -6.68112
vt -0.87746 5.45673 -6.68112
# 24 texture coords

o Box005
g Box005
s 2
f 1/1/1 2/2/2 3/3/3 4/4/4 
s 4
f 5/5/5 6/6/6 7/7/7 8/8/8 
s 8
f 1/9/1 4/10/4 6/11/6 5/12/5 
s 16
f 4/13/4 3/14/3 7/15/7 6/16/6 
s 32
f 3/17/3 2/18/2 8/19/8 7/20/7 
s 64
f 2/21/2 1/22/1 5/23/5 8/24/8 
# 6 polygons

