# 3ds Max Wavefront OBJ Exporter v0.97b - (c)2007 guruware
# File Created: 08.01.2019 02:12:08

#
# object Box007
#

v  -9.45000 0.00000 7.50000
v  -9.45000 0.00000 -7.50000
v  9.45000 0.00000 -7.50000
v  9.45000 0.00000 7.50000
v  -9.45000 23.39845 7.50000
v  9.45000 23.39845 7.50000
v  9.45000 23.39845 -7.50000
v  -9.45000 23.39845 -7.50000
# 8 vertices

vn -0.57735 -0.57735 0.57735
vn -0.57735 -0.57735 -0.57735
vn 0.57735 -0.57735 -0.57735
vn 0.57735 -0.57735 0.57735
vn -0.57735 0.57735 0.57735
vn 0.57735 0.57735 0.57735
vn 0.57735 0.57735 -0.57735
vn -0.57735 0.57735 -0.57735
# 8 vertex normals

vt -19.36307 -2.00021 -2.82253
vt -19.36307 5.49979 -2.82253
vt -28.81307 5.49978 -2.82253
vt -28.81307 -2.00022 -2.82253
vt 20.36307 -2.00021 8.87747
vt 29.81307 -2.00022 8.87747
vt 29.81307 5.49978 8.87747
vt 20.36307 5.49979 8.87747
vt 20.36307 -2.82253 -2.00021
vt 29.81307 -2.82253 -2.00022
vt 29.81307 8.87747 -2.00022
vt 20.36307 8.87747 -2.00021
vt -2.00022 -2.82253 29.81307
vt 5.49978 -2.82253 29.81307
vt 5.49978 8.87747 29.81307
vt -2.00022 8.87747 29.81307
vt -28.81307 -2.82253 5.49978
vt -19.36307 -2.82253 5.49979
vt -19.36307 8.87747 5.49979
vt -28.81307 8.87747 5.49978
vt -4.49979 -2.82253 20.36307
vt 3.00021 -2.82253 20.36307
vt 3.00021 8.87747 20.36307
vt -4.49979 8.87747 20.36307
# 24 texture coords

o Box007
g Box007
s 2
f 1/1/1 2/2/2 3/3/3 4/4/4 
s 4
f 5/5/5 6/6/6 7/7/7 8/8/8 
s 8
f 1/9/1 4/10/4 6/11/6 5/12/5 
s 16
f 4/13/4 3/14/3 7/15/7 6/16/6 
s 32
f 3/17/3 2/18/2 8/19/8 7/20/7 
s 64
f 2/21/2 1/22/1 5/23/5 8/24/8 
# 6 polygons

