# 3ds Max Wavefront OBJ Exporter v0.97b - (c)2007 guruware
# File Created: 08.01.2019 02:12:05

#
# object Box003
#

v  -17.50000 0.00000 3.50000
v  -17.50000 0.00000 -3.50000
v  17.50000 0.00000 -3.50000
v  17.50000 0.00000 3.50000
v  -17.50000 1.00000 3.50000
v  17.50000 1.00000 3.50000
v  17.50000 1.00000 -3.50000
v  -17.50000 1.00000 -3.50000
# 8 vertices

vn -0.57735 -0.57735 0.57735
vn -0.57735 -0.57735 -0.57735
vn 0.57735 -0.57735 -0.57735
vn 0.57735 -0.57735 0.57735
vn -0.57735 0.57735 0.57735
vn 0.57735 0.57735 0.57735
vn 0.57735 0.57735 -0.57735
vn -0.57735 0.57735 -0.57735
# 8 vertex normals

vt 20.36244 0.00056 6.68220
vt 20.36244 3.50056 6.68220
vt 2.86244 3.50055 6.68220
vt 2.86244 0.00055 6.68220
vt -19.36244 0.00056 7.18220
vt -1.86244 0.00055 7.18220
vt -1.86244 3.50055 7.18220
vt -19.36244 3.50056 7.18220
vt -19.36244 6.68220 0.00056
vt -1.86244 6.68220 0.00055
vt -1.86244 7.18220 0.00055
vt -19.36244 7.18220 0.00056
vt 0.00055 6.68220 -1.86244
vt 3.50055 6.68220 -1.86244
vt 3.50055 7.18220 -1.86244
vt 0.00055 7.18220 -1.86244
vt 2.86244 6.68220 3.50055
vt 20.36244 6.68220 3.50056
vt 20.36244 7.18220 3.50056
vt 2.86244 7.18220 3.50055
vt -2.50056 6.68220 -19.36244
vt 0.99944 6.68220 -19.36244
vt 0.99944 7.18220 -19.36244
vt -2.50056 7.18220 -19.36244
# 24 texture coords

o Box003
g Box003
s 2
f 1/1/1 2/2/2 3/3/3 4/4/4 
s 4
f 5/5/5 6/6/6 7/7/7 8/8/8 
s 8
f 1/9/1 4/10/4 6/11/6 5/12/5 
s 16
f 4/13/4 3/14/3 7/15/7 6/16/6 
s 32
f 3/17/3 2/18/2 8/19/8 7/20/7 
s 64
f 2/21/2 1/22/1 5/23/5 8/24/8 
# 6 polygons

