# 3ds Max Wavefront OBJ Exporter v0.97b - (c)2007 guruware
# File Created: 08.01.2019 02:12:11

#
# object Box011
#

v  -5.00000 0.00000 2.50000
v  -5.00000 0.00000 -2.50000
v  5.00000 0.00000 -2.50000
v  5.00000 0.00000 2.50000
v  -5.00000 1.00000 2.50000
v  5.00000 1.00000 2.50000
v  5.00000 1.00000 -2.50000
v  -5.00000 1.00000 -2.50000
# 8 vertices

vn -0.57735 -0.57735 0.57735
vn -0.57735 -0.57735 -0.57735
vn 0.57735 -0.57735 -0.57735
vn 0.57735 -0.57735 0.57735
vn -0.57735 0.57735 0.57735
vn 0.57735 0.57735 0.57735
vn 0.57735 0.57735 -0.57735
vn -0.57735 0.57735 -0.57735
# 8 vertex normals

vt -0.90365 15.28588 8.92102
vt 1.59635 15.28588 8.92102
vt 1.59635 19.98434 10.63112
vt -0.90365 19.98434 10.63112
vt 1.90365 15.11487 9.39086
vt 1.90365 19.81334 11.10096
vt -0.59635 19.81333 11.10096
vt -0.59635 15.11487 9.39086
vt 15.28588 8.92102 1.90365
vt 19.98434 10.63112 1.90365
vt 19.81334 11.10096 1.90365
vt 15.11487 9.39086 1.90365
vt -0.90365 10.63112 19.98434
vt 1.59635 10.63112 19.98434
vt 1.59635 11.10096 19.81333
vt -0.90365 11.10096 19.81334
vt -18.98434 10.63112 -0.59635
vt -14.28588 8.92102 -0.59635
vt -14.11487 9.39086 -0.59635
vt -18.81333 11.10096 -0.59635
vt -0.59635 8.92102 15.28588
vt 1.90365 8.92102 15.28588
vt 1.90365 9.39086 15.11487
vt -0.59635 9.39086 15.11487
# 24 texture coords

o Box011
g Box011
s 2
f 1/1/1 2/2/2 3/3/3 4/4/4 
s 4
f 5/5/5 6/6/6 7/7/7 8/8/8 
s 8
f 1/9/1 4/10/4 6/11/6 5/12/5 
s 16
f 4/13/4 3/14/3 7/15/7 6/16/6 
s 32
f 3/17/3 2/18/2 8/19/8 7/20/7 
s 64
f 2/21/2 1/22/1 5/23/5 8/24/8 
# 6 polygons

